<svg width="26" height="26" viewBox="0 0 26 26" fill="none" xmlns="http://www.w3.org/2000/svg">
<path opacity="0.56" d="M13 26C20.1797 26 26 20.1797 26 13C26 5.8203 20.1797 0 13 0C5.8203 0 0 5.8203 0 13C0 20.1797 5.8203 26 13 26Z" fill="#65E333"/>
<path fill-rule="evenodd" clip-rule="evenodd" d="M8.59196 6.61529L5 12.9554L8.53638 19.2034L9.86728 16.882L7.66472 12.9465L9.90238 8.99618L8.59196 6.61529Z" fill="#B4B4B4"/>
<path fill-rule="evenodd" clip-rule="evenodd" d="M13.2194 12.9941L9.29397 6L17.0278 6.02675L21 12.9673L17.0424 19.9762L9.20329 19.9851L13.2194 12.9941ZM18.3762 12.9732L15.6764 8.3155L13.2457 8.33631L15.8607 12.9851L13.2311 17.6429L15.6969 17.6518L18.3762 12.9732Z" fill="white"/>
</svg>
